<svg id="Layer_1" data-name="Layer 1" xmlns="http://www.w3.org/2000/svg" width="187.28" height="28.56" viewBox="0 0 187.28 28.56"><title>Lamborghini Urus logo - Brandlogos.net</title><path d="M360.75,375v8.82H335.94V375l-8.4-5.29v14.1l8.41,5.29h24.81l8.41-5.29v-14.1L360.75,375" transform="translate(-327.46 -369.73)"/><path d="M457.7,375v8.82H432.9V375l-8.41-5.29v14.1l8.41,5.29H457.7l8.41-5.29v-14.1L457.7,375" transform="translate(-327.46 -369.73)"/><path d="M409.15,382.07l8.41-5.29H384.34l-8.41,5.29h21.81l9.83,7.05H419l-9.83-7.05" transform="translate(-327.46 -369.73)"/><path d="M409.15,369.73H375.93l8.41,5.29h33.22l-8.41-5.29" transform="translate(-327.46 -369.73)"/><path d="M514.67,369.73H481.45L473,375h33.22l8.41-5.29m-41.62,7,8.41,5.29h33.22l-8.41-5.29Zm0,12.34h33.22l8.41-5.29H481.45L473,389.12" transform="translate(-327.46 -369.73)"/><rect x="0.03" y="25.95" width="62.44" height="2.58" style="fill:#008c39"/><rect x="0.03" y="25.95" width="62.44" height="2.58" style="fill:none;stroke:#12110c;stroke-miterlimit:10;stroke-width:0.050999999046325684px"/><rect x="62.42" y="25.95" width="62.44" height="2.58" style="fill:#fff"/><rect x="62.42" y="25.95" width="62.44" height="2.58" style="fill:none;stroke:#12110c;stroke-miterlimit:10;stroke-width:0.050999999046325684px"/><rect x="124.81" y="25.95" width="62.44" height="2.58" style="fill:#cd242d"/><rect x="124.81" y="25.95" width="62.44" height="2.58" style="fill:none;stroke:#12110c;stroke-miterlimit:10;stroke-width:0.050999999046325684px"/></svg>